<svg width="64" height="64" viewBox="0 0 100 100" xmlns="http://www.w3.org/2000/svg">
  <rect width="100" height="100" rx="20" fill="#111827"/>
  <!-- Golden hexagon -->
  <polygon points="50,3 91,27 91,73 50,97 9,73 9,27" fill="none" stroke="#d4af37" stroke-width="2.5" opacity="0.9"/>
  <polygon points="50,10 84,30 84,70 50,90 16,70 16,30" fill="none" stroke="#d4af37" stroke-width="1" opacity="0.3"/>
  <!-- Blades -->
  <path d="M34,68 Q50,50 74,24 Q76,22 75,24 Q72,28 50,52 Z" fill="#f472b6"/>
  <path d="M34,32 Q50,50 74,76 Q76,78 75,76 Q72,72 50,48 Z" fill="#f472b6"/>
  <!-- Pivot -->
  <circle cx="50" cy="50" r="4.5" fill="#d4af37"/>
  <circle cx="50" cy="50" r="2.5" fill="#b8860b"/>
  <!-- Handles -->
  <circle cx="26" cy="24" r="11" fill="none" stroke="#f472b6" stroke-width="4.5"/>
  <circle cx="26" cy="24" r="6"  fill="none" stroke="#f472b6" stroke-width="2"/>
  <circle cx="26" cy="76" r="11" fill="none" stroke="#f472b6" stroke-width="4.5"/>
  <circle cx="26" cy="76" r="6"  fill="none" stroke="#f472b6" stroke-width="2"/>
  <!-- Sparkle -->
  <polygon points="80,18 83,25 80,32 77,25" fill="#d4af37"/>
  <circle cx="86" cy="36" r="2.5" fill="#f9a8d4" opacity="0.85"/>
</svg>
